<svg width="245" height="61" viewBox="0 0 245 61" fill="none" xmlns="http://www.w3.org/2000/svg">
<path d="M220.366 51.5971C222.871 51.5971 223.848 50.4509 223.848 48.6258C223.848 46.7155 222.871 45.6119 220.366 45.6119H217.374V51.5971H220.366ZM220.366 52.8706H217.374V59.1956H215.888V44.3595H220.366C223.805 44.3595 225.375 46.1849 225.375 48.6258C225.375 51.0241 223.848 52.8706 220.366 52.8706Z" fill="#145FF6"/>
<path d="M228.38 59.1956H226.895V47.607H228.38V49.6657C229.016 48.2436 230.354 47.3947 232.349 47.3947V48.944H231.946C230.015 48.944 228.38 49.8143 228.38 52.722V59.1956Z" fill="#145FF6"/>
<path d="M237.739 58.0705C239.926 58.0705 242.048 56.5849 242.048 53.4011C242.048 50.2175 239.968 48.7318 237.761 48.7318C235.554 48.7318 233.494 50.2175 233.494 53.4011C233.494 56.5849 235.532 58.0705 237.739 58.0705ZM237.739 59.3653C234.471 59.3653 231.987 57.0729 231.987 53.4011C231.987 49.708 234.535 47.4371 237.782 47.4371C241.05 47.4371 243.576 49.708 243.576 53.4011C243.576 57.0729 241.008 59.3653 237.739 59.3653Z" fill="#145FF6"/>
<path d="M1.13477 7.12656H7.82613V39.2616H1.13477V7.12656Z" fill="white"/>
<path d="M17.8776 7.12655H21.208V23.2407C21.208 25.089 19.7102 26.5869 17.8617 26.5869C16.9381 26.5869 16.1018 26.2125 15.4959 25.6065C14.8911 25.0017 14.5166 24.1654 14.5166 23.2407V7.12655H17.5202C17.6405 7.12655 17.7596 7.12779 17.8776 7.13006V7.12655Z" fill="white"/>
<path d="M20.2276 32.6871C20.8335 33.2918 21.208 34.1281 21.208 35.0519V39.2616H14.5166V35.0519C14.5166 33.2046 16.0144 31.7067 17.8617 31.7067C18.7865 31.7067 19.6228 32.0811 20.2276 32.6871Z" fill="white"/>
<path d="M31.2664 7.12659C32.4227 7.12659 33.5313 7.21169 34.5877 7.37736V11.3353C34.5877 13.1837 33.0899 14.6816 31.2426 14.6816C30.3189 14.6816 29.4826 14.3071 28.8778 13.7012C28.2719 13.0964 27.8975 12.2601 27.8975 11.3353V7.12659H31.2664Z" fill="white"/>
<path d="M33.6073 20.7816C34.2133 21.3864 34.5877 22.2228 34.5877 23.1476V39.0018C33.5313 39.173 32.4227 39.2616 31.2664 39.2616H27.8975V23.1476C27.8975 21.2992 29.3953 19.8014 31.2426 19.8014C32.1662 19.8014 33.0025 20.1758 33.6073 20.7816Z" fill="white"/>
<path d="M47.9686 23.1033C47.9686 28.7372 45.5346 33.5484 41.2783 36.4214V9.8829C45.5346 12.6834 47.9686 17.414 47.9686 23.1033Z" fill="white"/>
<path d="M21.208 35.0519V39.2616H14.5166V35.0519C14.5166 33.2046 16.0144 31.7067 17.8617 31.7067C18.7865 31.7067 19.6228 32.0811 20.2276 32.6871C20.8335 33.2918 21.208 34.1281 21.208 35.0519Z" fill="#145FF6"/>
<path d="M21.208 7.12655V23.2407C21.208 25.089 19.7102 26.5869 17.8617 26.5869C16.9381 26.5869 16.1018 26.2125 15.4959 25.6065C14.8911 25.0017 14.5166 24.1654 14.5166 23.2407V7.12655H17.5202C17.6405 7.12655 17.7596 7.12779 17.8776 7.13006V7.12655H21.208Z" fill="#145FF6"/>
<path d="M34.5877 23.1476V39.0018C33.5313 39.173 32.4227 39.2616 31.2664 39.2616H27.8975V23.1476C27.8975 21.2992 29.3953 19.8014 31.2426 19.8014C32.1662 19.8014 33.0025 20.1758 33.6073 20.7816C34.2133 21.3864 34.5877 22.2228 34.5877 23.1476Z" fill="#145FF6"/>
<path d="M34.5877 7.37736V11.3353C34.5877 13.1837 33.0899 14.6816 31.2426 14.6816C30.3189 14.6816 29.4826 14.3071 28.8778 13.7012C28.2719 13.0964 27.8975 12.2601 27.8975 11.3353V7.12659H31.2664C32.4227 7.12659 33.5313 7.21169 34.5877 7.37736Z" fill="#145FF6"/>
<path d="M47.9686 23.1033C47.9686 28.7372 45.5346 33.5484 41.2783 36.4214V9.8829C45.5346 12.6834 47.9686 17.414 47.9686 23.1033Z" fill="#145FF6"/>
<path d="M7.82613 7.12656V39.2616H1.13477V7.12656H7.82613Z" fill="#145FF6"/>
<path d="M77.2002 26.6437H72.6161V31.1825H77.2002C79.0158 31.1825 79.8782 30.5472 79.8782 28.9586C79.8782 27.4154 79.0158 26.6437 77.2002 26.6437ZM76.5194 15.1154H72.6161V19.6541H76.5194C78.335 19.6541 79.1973 18.9733 79.1973 17.4301C79.1973 15.8415 78.335 15.1154 76.5194 15.1154ZM79.3788 39.2616H62.54V7.12701H78.9249C85.3246 7.12701 89.4549 9.8957 89.4549 15.4784C89.4549 19.3364 87.2308 21.9688 84.0537 22.7858C88.0026 23.7389 90.1811 26.8706 90.1811 30.4563C90.1811 36.0844 86.3686 39.2616 79.3788 39.2616Z" fill="black"/>
<path d="M92.2223 13.6628H102.298V39.2616H92.2223V13.6628ZM91.4961 6.67315C91.4961 3.85918 93.7201 1.63515 97.3057 1.63515C100.846 1.63515 103.07 3.85918 103.07 6.67315C103.07 9.44184 100.846 11.6205 97.3057 11.6205C93.7201 11.6205 91.4961 9.44184 91.4961 6.67315Z" fill="black"/>
<path d="M107.652 22.0597H104.475V13.6628H107.652V7.49023H117.728V13.6628H121.904V22.0597H117.728V28.9586C117.728 30.1386 118.273 30.6832 119.589 30.6832H121.994V39.2616H118.182C112.191 39.2616 107.652 36.7198 107.652 28.777V22.0597Z" fill="black"/>
<path d="M136.973 30.2747C141.421 30.2747 144.371 27.7784 144.371 23.1035C144.371 18.4286 141.421 15.9322 136.973 15.9322H134.567V30.2747H136.973ZM154.584 23.1035C154.584 32.2718 148.139 39.2616 137.881 39.2616H124.491V7.12701H137.881C148.139 7.12701 154.584 13.8445 154.584 23.1035Z" fill="black"/>
<path d="M165.904 23.8299H171.895C171.895 22.0597 170.534 21.2427 169.036 21.2427C167.356 21.2427 166.222 22.0597 165.904 23.8299ZM169.036 39.5793C161.365 39.5793 155.964 34.6321 155.964 26.4623C155.964 18.2925 161.365 13.3453 169.036 13.3453C176.706 13.3453 182.108 18.2017 182.108 26.2353C182.108 26.8706 182.061 27.597 181.97 28.2323H165.813C165.949 30.8194 167.175 31.5456 168.536 31.5456C169.853 31.5456 170.534 30.8194 170.897 30.0478H181.562C180.472 35.4944 175.48 39.5793 169.036 39.5793Z" fill="black"/>
<path d="M183.923 7.49023H193.999V39.2616H183.923V7.49023Z" fill="black"/>
<path d="M198.881 22.0597H195.704V13.6628H198.881V7.49025H208.957V13.6628H213.133V22.0597H208.957V28.9586C208.957 30.1386 209.502 30.6832 210.818 30.6832H213.224V39.2616H209.411C203.42 39.2616 198.881 36.7198 198.881 28.777V22.0597Z" fill="black"/>
<path d="M228.292 22.1504C226.205 22.1504 224.571 23.6483 224.571 26.4623C224.571 29.2763 226.205 30.7742 228.292 30.7742C230.38 30.7742 232.014 29.2763 232.014 26.4623C232.014 23.6483 230.38 22.1504 228.292 22.1504ZM224.934 13.3453C228.338 13.3453 230.789 14.843 232.014 17.1579V13.6629H242.045V39.2617H232.014V35.7668C230.789 38.0815 228.338 39.5793 224.934 39.5793C219.033 39.5793 214.359 34.7228 214.359 26.4623C214.359 18.2017 219.033 13.3453 224.934 13.3453Z" fill="black"/>
</svg>
