<svg width="18" height="19" viewBox="0 0 18 19" fill="none" xmlns="http://www.w3.org/2000/svg">
<path d="M15.75 8.9375V15.125C15.75 15.7463 15.2463 16.25 14.625 16.25H3.9375C3.31618 16.25 2.8125 15.7463 2.8125 15.125V8.9375M9 4.15625C9 3.06894 8.11856 2.1875 7.03125 2.1875C5.94394 2.1875 5.0625 3.06894 5.0625 4.15625C5.0625 5.24356 5.94394 6.125 7.03125 6.125C7.58213 6.125 9 6.125 9 6.125M9 4.15625C9 4.69268 9 6.125 9 6.125M9 4.15625C9 3.06894 9.88144 2.1875 10.9688 2.1875C12.0561 2.1875 12.9375 3.06894 12.9375 4.15625C12.9375 5.24356 12.0561 6.125 10.9688 6.125C10.4179 6.125 9 6.125 9 6.125M9 6.125V16.25M2.53125 8.9375H16.0312C16.4972 8.9375 16.875 8.55974 16.875 8.09375V6.96875C16.875 6.50276 16.4972 6.125 16.0312 6.125H2.53125C2.06526 6.125 1.6875 6.50276 1.6875 6.96875V8.09375C1.6875 8.55974 2.06526 8.9375 2.53125 8.9375Z" stroke="white" stroke-width="1.5" stroke-linecap="round" stroke-linejoin="round"/>
</svg>
